<svg 
  xmlns="http://www.w3.org/2000/svg" 
  viewBox="0 0 45 45" 
  width="100%" 
  height="100%">
  
  <style>
    .favicon-path { fill: #1e293b; } /* Dark slate for light-mode browser tabs */
    @media (prefers-color-scheme: dark) {
      .favicon-path { fill: #ffffff; } /* Crisp white for dark-mode browser tabs */
    }
  </style>

  <g transform="translate(0, -17)">
    <path class="favicon-path" d="M33.65 35.10L33.65 41.20L41.50 41.20L41.50 35.10L33.65 35.10M24.50 35.10L24.50 41.20L32.20 41.20L32.20 35.10L24.50 35.10M15.65 35.10L15.65 41.20L23.05 41.20L23.05 35.10L15.65 35.10M14.15 33.65L43 33.65L43 42.65L14.15 42.65L14.15 33.65M12.65 45.90L39.60 45.90L39.60 47.35L12.65 47.35L12.65 45.90M39.10 45.90L39.45 45.90L39.80 45.80L40.75 46.50Q38.75 49.80 35.48 52.32Q32.20 54.85 28.15 56.67Q24.10 58.50 19.70 59.70Q15.30 60.90 11.00 61.55Q10.95 61.35 10.83 61.10Q10.70 60.85 10.53 60.57Q10.35 60.30 10.20 60.15Q14.35 59.60 18.68 58.47Q23 57.35 26.98 55.65Q30.95 53.95 34.10 51.60Q37.25 49.25 39.10 46.25L39.10 45.90M18.05 46.45Q20.45 49.95 24.55 52.72Q28.65 55.50 33.80 57.35Q38.95 59.20 44.55 60.05Q44.40 60.20 44.20 60.45Q44 60.70 43.85 60.92Q43.70 61.15 43.60 61.35Q38.05 60.40 32.85 58.45Q27.65 56.50 23.48 53.60Q19.30 50.70 16.75 47.00L18.05 46.45M18.25 25.10L18.25 29.15L39.05 29.15L39.05 25.10L18.25 25.10M18.25 19.70L18.25 23.65L39.05 23.65L39.05 19.70L18.25 19.70M16.75 18.25L40.55 18.25L40.55 30.60L16.75 30.60L16.75 18.25M2.35 18.60L3.25 17.50Q4.85 18.25 6.53 19.22Q8.20 20.20 9.70 21.17Q11.20 22.15 12.15 23.00L11.20 24.30Q10.25 23.40 8.78 22.37Q7.30 21.35 5.63 20.35Q3.95 19.35 2.35 18.60M0 32.60L0.95 31.60Q2.50 32.35 4.15 33.32Q5.80 34.30 7.25 35.30Q8.70 36.30 9.65 37.15L8.70 38.45Q7.75 37.60 6.30 36.55Q4.85 35.50 3.20 34.45Q1.55 33.40 0 32.60M1 59.30Q2.25 57.45 3.77 54.87Q5.30 52.30 6.85 49.47Q8.40 46.65 9.70 44.05L10.85 45.00Q9.65 47.45 8.15 50.22Q6.65 53.00 5.15 55.65Q3.65 58.30 2.30 60.40L1 59.30Z"/>
  </g>
</svg>
